<svg width="119" height="101" viewBox="0 0 119 101" fill="none" xmlns="http://www.w3.org/2000/svg">
<path d="M88.1164 65.0446L88.1168 65.1049C91.5284 64.3295 94.8572 63.377 97.9898 62.2254C108.845 58.2348 116.876 52.0567 118.452 42.9667L118.432 35.9106C116.899 26.7044 109.651 19.7962 99.437 14.9968C95.0634 12.9418 90.1971 11.3024 85.1066 10.0592L77.6353 22.7936C82.7577 23.7379 87.7041 25.1054 92.0868 26.9313C101.529 30.8653 108.885 37.1834 108.885 46.4442C108.885 51.1481 106.61 54.9148 103.126 57.853C99.6738 60.7651 94.977 62.9222 89.8969 64.5138C89.3096 64.6978 88.7157 64.8747 88.1164 65.0446Z" fill="white"/>
<path d="M59.5216 76.7575C63.41 76.7575 66.7075 74.2276 67.8579 70.724C71.5835 70.7984 74.8731 70.7984 78.5282 70.7984L66.6434 91.0089H51.9962L39.6359 70.7984C43.439 70.7984 47.4597 70.7984 51.1967 70.7585C52.3573 74.2442 55.6459 76.7575 59.5216 76.7575Z" fill="white"/>
<path d="M40.3009 64.6403C43.962 65.2064 47.6275 65.5501 51.0432 65.725C52.0402 61.9756 55.4582 59.213 59.5216 59.213C63.4989 59.213 66.858 61.8599 67.9334 65.4883C71.1054 65.2455 74.4939 64.8606 77.8953 64.2995C80.0553 63.497 81.9073 62.521 83.2785 61.3623C84.944 59.9549 85.8384 58.3407 85.8384 56.4212C85.8384 52.4356 82.7026 49.2936 77.3963 47.0788C73.8067 45.5806 69.4628 44.6234 65.0935 44.1703L59.7424 53.2909L54.161 44.0282C49.1669 44.3693 44.3663 45.2503 40.5439 46.8192C35.4543 48.9083 32.4737 52.0247 32.4737 56.4212C32.4737 58.5509 33.4007 60.2713 35.0522 61.7152C36.3934 62.8877 38.1966 63.8578 40.3009 64.6403Z" fill="white"/>
<path d="M88.3325 100.01L88.168 73.3873C88.5245 73.4947 88.8786 73.6047 89.2302 73.7173C94.1632 75.2979 98.4791 77.3696 101.537 80.0075C104.564 82.6182 106.307 85.7298 106.307 89.5017C106.307 93.5275 104.678 97.0269 101.805 100.01H88.3325Z" fill="white"/>
<path d="M109.231 89.5017C109.231 93.5285 107.904 97.0173 105.649 100.01H118.613L118.574 86.2595C117.783 85.2631 116.881 84.316 115.878 83.4151C111.755 79.7103 105.968 76.8253 99.4021 74.6341C98.9666 74.4887 98.5281 74.3466 98.087 74.2076C100.074 75.2582 101.887 76.4477 103.447 77.7934C106.954 80.8187 109.231 84.6852 109.231 89.5017Z" fill="white"/>
<path d="M88.1388 68.6679C92.2925 69.5043 96.4202 70.5562 100.328 71.8604C107.088 74.1166 113.294 77.1617 117.833 81.2401C118.081 81.4629 118.324 81.6889 118.562 81.9181L118.475 51.02C114.509 57.4494 107.243 61.9392 98.9988 64.9699C95.548 66.2385 91.8808 67.2712 88.1353 68.0971L88.1388 68.6679Z" fill="white"/>
<path d="M0.308594 100.01H12.8873C10.9322 97.0393 9.81191 93.5571 9.81191 89.5017C9.81191 84.4129 12.0574 80.3617 15.5775 77.2201C17.1303 75.8343 18.9332 74.6219 20.909 73.5621C20.7256 73.6201 20.5428 73.6786 20.3604 73.7378C11.4733 76.6215 4.15333 80.8497 0.308594 86.8565V100.01Z" fill="white"/>
<path d="M30.2881 68.1954C27.0798 67.5035 23.9169 66.6536 20.8973 65.6188C12.1724 62.6289 4.35929 57.9786 0.308594 50.9214V82.0681C4.95714 76.9737 11.9138 73.4043 19.4579 70.9564C22.9395 69.8267 26.5952 68.9172 30.2881 68.1954Z" fill="white"/>
<path d="M12.736 89.5017C12.736 93.6142 14.0928 97.093 16.5303 100.01H30.5888V72.83C30.3251 72.9081 30.0626 72.9878 29.8016 73.0691C24.8784 74.6027 20.5745 76.6797 17.5246 79.4018C14.5111 82.0912 12.736 85.3887 12.736 89.5017Z" fill="white"/>
<path d="M15.8981 58.4093C18.7537 60.9012 22.4593 62.8148 26.5273 64.2788C24.9355 63.8494 23.3702 63.3752 21.8452 62.8526C9.44245 58.6023 0.308594 51.4002 0.308594 39.621C0.308594 27.6241 7.62021 19.5345 18.813 14.3627C23.2036 12.334 28.1579 10.7748 33.4326 9.62788L41.2016 22.521C35.8479 23.376 30.7747 24.6665 26.3448 26.4814C17.0131 30.3046 10.1581 36.6482 10.1581 46.4442C10.1581 51.411 12.4006 55.3572 15.8981 58.4093Z" fill="white"/>
<path d="M17.5865 11.7083C9.94418 15.2395 3.74013 20.2179 0.308594 26.9506V0H27.6312L31.8413 6.98689C26.7409 8.15234 21.9182 9.70675 17.5865 11.7083Z" fill="white"/>
<path d="M100.68 12.3503C96.3622 10.3212 91.6073 8.68882 86.6492 7.43001L91.0085 0H118.331L118.408 27.2664C114.757 20.8672 108.331 15.9452 100.68 12.3503Z" fill="white"/>
<path d="M52.474 41.2284C47.7843 41.6506 43.2257 42.5576 39.4336 44.1141C33.8477 46.4069 29.5496 50.3013 29.5496 56.4212C29.5496 58.0349 29.927 59.4758 30.5888 60.752V62.526C30.3949 62.4691 30.2016 62.4113 30.0092 62.3527C25.1193 60.8633 20.8467 58.8467 17.8207 56.2061C14.8315 53.5976 13.0822 50.4101 13.0822 46.4442C13.0822 38.3747 18.6156 32.808 27.4533 29.1872C31.9609 27.3405 37.2298 26.0502 42.8335 25.2293L52.474 41.2284Z" fill="white"/>
<path d="M66.7112 41.413C70.871 41.9378 74.9953 42.9081 78.5226 44.3803C84.1344 46.7226 88.7625 50.5915 88.7625 56.4212C88.7625 57.6453 88.519 58.7663 88.0839 59.7879L88.0976 62.0055C88.4079 61.9134 88.7163 61.8194 89.0227 61.7234C93.9221 60.1885 98.2068 58.1771 101.241 55.6178C104.244 53.0847 105.961 50.0774 105.961 46.4442C105.961 39.0305 100.102 33.4383 90.9623 29.6306C86.4972 27.7703 81.3746 26.3971 76.0577 25.4826L66.7112 41.413Z" fill="white"/>
</svg>
