<svg width="119" height="101" viewBox="0 0 119 101" fill="none" xmlns="http://www.w3.org/2000/svg">
<path d="M88.1164 65.0445L88.1168 65.1048C91.5284 64.3294 94.8572 63.3769 97.9898 62.2253C108.845 58.2347 116.876 52.0566 118.452 42.9666L118.432 35.9105C116.899 26.7043 109.651 19.7961 99.437 14.9967C95.0634 12.9417 90.1971 11.3023 85.1066 10.0591L77.6353 22.7935C82.7577 23.7378 87.7041 25.1053 92.0868 26.9312C101.529 30.8652 108.885 37.1833 108.885 46.4441C108.885 51.148 106.61 54.9147 103.126 57.8529C99.6738 60.765 94.977 62.9221 89.8969 64.5137C89.3096 64.6977 88.7157 64.8746 88.1164 65.0445Z" fill="#1A1D27"/>
<path d="M59.5217 76.7576C63.4101 76.7576 66.7076 74.2277 67.858 70.7241C71.5836 70.7985 74.8732 70.7985 78.5283 70.7985L66.6435 91.009H51.9963L39.636 70.7985C43.4391 70.7985 47.4598 70.7985 51.1968 70.7586C52.3574 74.2443 55.646 76.7576 59.5217 76.7576Z" fill="#1A1D27"/>
<path d="M40.3008 64.6404C43.9619 65.2065 47.6274 65.5502 51.0431 65.7251C52.0401 61.9757 55.4581 59.2131 59.5215 59.2131C63.4988 59.2131 66.8579 61.86 67.9333 65.4884C71.1053 65.2456 74.4938 64.8607 77.8952 64.2996C80.0552 63.4971 81.9072 62.5211 83.2784 61.3624C84.9439 59.955 85.8383 58.3408 85.8383 56.4213C85.8383 52.4357 82.7025 49.2937 77.3962 47.0789C73.8066 45.5807 69.4627 44.6235 65.0934 44.1704L59.7423 53.291L54.1609 44.0283C49.1668 44.3694 44.3662 45.2504 40.5438 46.8193C35.4542 48.9084 32.4736 52.0248 32.4736 56.4213C32.4736 58.551 33.4006 60.2714 35.0521 61.7153C36.3933 62.8878 38.1965 63.8579 40.3008 64.6404Z" fill="#1A1D27"/>
<path d="M88.3325 100.01L88.168 73.3872C88.5245 73.4946 88.8786 73.6046 89.2302 73.7172C94.1632 75.2978 98.4791 77.3695 101.537 80.0074C104.564 82.6181 106.307 85.7297 106.307 89.5016C106.307 93.5274 104.678 97.0268 101.805 100.01H88.3325Z" fill="#1A1D27"/>
<path d="M109.231 89.5016C109.231 93.5284 107.904 97.0172 105.649 100.01H118.613L118.574 86.2594C117.783 85.263 116.881 84.3159 115.878 83.415C111.755 79.7102 105.968 76.8252 99.402 74.634C98.9665 74.4886 98.528 74.3465 98.0869 74.2075C100.074 75.2581 101.887 76.4476 103.447 77.7933C106.954 80.8186 109.231 84.6851 109.231 89.5016Z" fill="#1A1D27"/>
<path d="M88.1388 68.6679C92.2925 69.5043 96.4202 70.5562 100.328 71.8604C107.088 74.1166 113.294 77.1617 117.833 81.2401C118.081 81.4629 118.324 81.6889 118.562 81.9181L118.475 51.02C114.509 57.4494 107.243 61.9392 98.9988 64.9699C95.548 66.2385 91.8808 67.2712 88.1353 68.0971L88.1388 68.6679Z" fill="#1A1D27"/>
<path d="M0.308594 100.01H12.8873C10.9322 97.0392 9.81191 93.557 9.81191 89.5016C9.81191 84.4128 12.0574 80.3616 15.5775 77.22C17.1303 75.8342 18.9332 74.6218 20.909 73.562C20.7256 73.62 20.5428 73.6785 20.3604 73.7377C11.4733 76.6214 4.15333 80.8496 0.308594 86.8564V100.01Z" fill="#1A1D27"/>
<path d="M30.2881 68.1954C27.0798 67.5035 23.9169 66.6536 20.8973 65.6188C12.1724 62.6289 4.35929 57.9786 0.308594 50.9214V82.0681C4.95714 76.9737 11.9138 73.4043 19.4579 70.9564C22.9395 69.8267 26.5952 68.9172 30.2881 68.1954Z" fill="#1A1D27"/>
<path d="M12.7361 89.5018C12.7361 93.6143 14.0929 97.0931 16.5304 100.01H30.5889V72.8301C30.3252 72.9082 30.0627 72.9879 29.8017 73.0692C24.8785 74.6028 20.5746 76.6798 17.5247 79.4019C14.5112 82.0913 12.7361 85.3888 12.7361 89.5018Z" fill="#1A1D27"/>
<path d="M15.8981 58.4094C18.7537 60.9013 22.4593 62.8149 26.5273 64.2789C24.9355 63.8495 23.3702 63.3752 21.8452 62.8526C9.44245 58.6023 0.308594 51.4002 0.308594 39.621C0.308594 27.6241 7.62021 19.5346 18.813 14.3628C23.2036 12.334 28.1579 10.7748 33.4326 9.62793L41.2016 22.521C35.8479 23.376 30.7747 24.6665 26.3448 26.4814C17.0131 30.3046 10.1581 36.6482 10.1581 46.4442C10.1581 51.411 12.4006 55.3573 15.8981 58.4094Z" fill="#1A1D27"/>
<path d="M17.5865 11.7083C9.94418 15.2395 3.74013 20.2179 0.308594 26.9506V0H27.6312L31.8413 6.98689C26.7409 8.15234 21.9182 9.70675 17.5865 11.7083Z" fill="#1A1D27"/>
<path d="M100.68 12.3503C96.3622 10.3212 91.6073 8.68882 86.6492 7.43001L91.0085 0H118.331L118.408 27.2664C114.757 20.8672 108.331 15.9452 100.68 12.3503Z" fill="#1A1D27"/>
<path d="M52.4741 41.2286C47.7844 41.6508 43.2258 42.5578 39.4337 44.1143C33.8478 46.4071 29.5497 50.3015 29.5497 56.4214C29.5497 58.0351 29.9271 59.476 30.5889 60.7522V62.5262C30.395 62.4693 30.2017 62.4115 30.0093 62.3529C25.1194 60.8635 20.8468 58.8469 17.8208 56.2063C14.8316 53.5978 13.0823 50.4103 13.0823 46.4444C13.0823 38.3749 18.6157 32.8082 27.4534 29.1874C31.961 27.3407 37.2299 26.0504 42.8336 25.2295L52.4741 41.2286Z" fill="#1A1D27"/>
<path d="M66.7112 41.4128C70.871 41.9376 74.9953 42.9079 78.5226 44.3801C84.1344 46.7224 88.7625 50.5913 88.7625 56.421C88.7625 57.6451 88.519 58.7661 88.0839 59.7877L88.0976 62.0053C88.4079 61.9132 88.7163 61.8192 89.0227 61.7232C93.9221 60.1883 98.2068 58.1769 101.241 55.6176C104.244 53.0845 105.961 50.0772 105.961 46.444C105.961 39.0303 100.102 33.4381 90.9623 29.6304C86.4972 27.7701 81.3746 26.3969 76.0577 25.4824L66.7112 41.4128Z" fill="#1A1D27"/>
</svg>
